<?xml version="1.0" encoding="UTF-8"?>
<svg version="1.1" xmlns="http://www.w3.org/2000/svg" width="100" height="100">
<path d="M0 0 C33 0 66 0 100 0 C100 33 100 66 100 100 C67 100 34 100 0 100 C0 67 0 34 0 0 Z " fill="#0062AD" transform="translate(0,0)"/>
<path d="M0 0 C1.93956814 0.255602 3.87665989 0.53004646 5.8125 0.8125 C7.43091797 1.03873047 7.43091797 1.03873047 9.08203125 1.26953125 C12.14861017 2.03720228 12.98886908 2.69455724 15 5 C17.60611077 5.72197162 17.60611077 5.72197162 20 6 C19.67 6.99 19.34 7.98 19 9 C20.65 9.66 22.3 10.32 24 11 C23.34 13.64 22.68 16.28 22 19 C22.84304687 18.98839844 23.68609375 18.97679688 24.5546875 18.96484375 C25.65039062 18.95582031 26.74609375 18.94679688 27.875 18.9375 C29.51082031 18.92009766 29.51082031 18.92009766 31.1796875 18.90234375 C34 19 34 19 36 20 C36 19.34 36 18.68 36 18 C39.01031744 17.06576355 39.86650268 16.95550089 43 18 C44.24609375 20.765625 44.24609375 20.765625 45.4375 24.25 C47.03981827 28.92475033 48.71347156 32.28782775 52 36 C49.69 36.66 47.38 37.32 45 38 C40.35677486 33.50655632 40.23817524 29.13301236 40 23 C39.34 23 38.68 23 38 23 C38.061875 24.19625 38.12375 25.3925 38.1875 26.625 C38.20951508 30.80786449 36.8687455 33.26250899 35 37 C34.74741546 39.7239509 34.85806562 42.25593525 35 45 C34.01 45.495 34.01 45.495 33 46 C30.92020792 38.94985735 29.46383502 33.26187082 31 26 C30.34 26 29.68 26 29 26 C28.855625 26.94875 28.71125 27.8975 28.5625 28.875 C28 32 28 32 27 34 C24.04246721 35.8638281 22.00103113 36.09534922 18.5625 36 C16.17701291 36.07584698 16.17701291 36.07584698 14 37 C11.69960024 40.10076927 10.30688088 43.38145042 9 47 C7.54393481 42.47907032 8.72967159 39.48351204 10 35 C8.39482903 35.08733576 6.79078338 35.19552224 5.1875 35.3125 C4.29417969 35.37050781 3.40085937 35.42851563 2.48046875 35.48828125 C-0.30604 36.06313581 -1.24135754 36.8206856 -3 39 C-2.8125 36.75 -2.8125 36.75 -2 34 C-1.21625 33.443125 -0.4325 32.88625 0.375 32.3125 C4.23229886 28.91440338 5.25031341 25.01106297 6 20 C5.59057858 16.5031287 5.59057858 16.5031287 4 14 C3.01 13.67 2.02 13.34 1 13 C0.34 14.65 -0.32 16.3 -1 18 C-1.99 18 -2.98 18 -4 18 C-3.9127395 15.74928094 -3.80455885 13.49936612 -3.6875 11.25 C-3.62949219 9.99703125 -3.57148438 8.7440625 -3.51171875 7.453125 C-2.99544099 3.96923537 -2.3746744 2.52110204 0 0 Z " fill="#F7F7F7" transform="translate(27,20)"/>
<path d="M0 0 C0.66 0 1.32 0 2 0 C1.9071875 1.85625 1.9071875 1.85625 1.8125 3.75 C1.76433993 8.83891429 3.05384791 13.20057514 4.63671875 18.0078125 C5 21 5 21 2 28 C9.92 28.33 17.84 28.66 26 29 C26 31.31 26 33.62 26 36 C4.88 36 -16.24 36 -38 36 C-38 33.69 -38 31.38 -38 29 C-33.05 28.67 -28.1 28.34 -23 28 C-22.67 24.37 -22.34 20.74 -22 17 C-21.34 17.66 -20.68 18.32 -20 19 C-18.35 15.7 -16.7 12.4 -15 9 C-14.34 9.33 -13.68 9.66 -13 10 C-9.22470275 9.58052253 -5.68802833 8.92200708 -2 8 C-1.34 5.36 -0.68 2.72 0 0 Z " fill="#0C426B" transform="translate(56,46)"/>
<path d="M0 0 C20.46 0 40.92 0 62 0 C62 1.65 62 3.3 62 5 C41.54 5 21.08 5 0 5 C0 3.35 0 1.7 0 0 Z " fill="#FFFFFF" transform="translate(19,76)"/>
<path d="M0 0 C1.96635733 0.1760917 3.92504626 0.44137423 5.875 0.75 C6.94492187 0.90984375 8.01484375 1.0696875 9.1171875 1.234375 C12.13535063 2.03594678 13.00414727 2.72509188 15 5 C17.60611077 5.72197162 17.60611077 5.72197162 20 6 C19.67 6.99 19.34 7.98 19 9 C20.65 9.66 22.3 10.32 24 11 C23.34 13.64 22.68 16.28 22 19 C18.47069597 18.74220736 17.27533699 18.31481734 14.90234375 15.6015625 C13.92974609 14.12816406 13.92974609 14.12816406 12.9375 12.625 C9.65278302 7.62477952 9.65278302 7.62477952 5 4 C2.40952023 4.75285597 2.40952023 4.75285597 0 6 C-0.99 6 -1.98 6 -3 6 C-1.125 1.125 -1.125 1.125 0 0 Z " fill="#DEDEDE" transform="translate(27,20)"/>
<path d="M0 0 C2.475 0.99 2.475 0.99 5 2 C5 2.66 5 3.32 5 4 C5.66 4 6.32 4 7 4 C7.433125 5.0725 7.86625 6.145 8.3125 7.25 C9.55321513 10.16272646 10.95070379 12.56036166 13 15 C10.69 15.66 8.38 16.32 6 17 C1.86862314 13.00189336 1.46359898 9.69201494 1.17578125 4.20703125 C1.13543471 1.95854511 1.13543471 1.95854511 0 0 Z " fill="#D0D0D0" transform="translate(66,41)"/>
<path d="M0 0 C0.99 0.33 1.98 0.66 3 1 C2.67 4.3 2.34 7.6 2 11 C0.906875 11.103125 -0.18625 11.20625 -1.3125 11.3125 C-4.85559629 11.97307727 -5.93243723 12.2027092 -8 15 C-7.8125 12.75 -7.8125 12.75 -7 10 C-6.195625 9.360625 -5.39125 8.72125 -4.5625 8.0625 C-1.51025433 5.60581446 -0.9346288 3.73851521 0 0 Z " fill="#B5B5B5" transform="translate(32,44)"/>
<path d="M0 0 C0.66 0 1.32 0 2 0 C1.98839844 0.58007812 1.97679687 1.16015625 1.96484375 1.7578125 C1.91237826 6.2998246 2.08248937 10.52713569 3 15 C2.01 15 1.02 15 0 15 C-2 12 -2 12 -2 9 C-2.99 8.67 -3.98 8.34 -5 8 C-4.01 8 -3.02 8 -2 8 C-1.34 5.36 -0.68 2.72 0 0 Z " fill="#00243F" transform="translate(56,46)"/>
<path d="M0 0 C0.33 0.66 0.66 1.32 1 2 C0.37915039 3.69580078 0.37915039 3.69580078 -0.65234375 5.6953125 C-1.01650391 6.41074219 -1.38066406 7.12617187 -1.75585938 7.86328125 C-2.14580078 8.60964844 -2.53574219 9.35601562 -2.9375 10.125 C-3.32357422 10.87910156 -3.70964844 11.63320313 -4.10742188 12.41015625 C-5.06452132 14.27709097 -6.03136106 16.13902628 -7 18 C-8.38930075 13.05846571 -7.16450822 9.59039102 -5 5 C-3.46037299 3.01721626 -1.93870071 1.62431681 0 0 Z " fill="#FFFFFF" transform="translate(43,49)"/>
<path d="M0 0 C1.67542976 0.28604898 3.34385343 0.61781233 5 1 C5 1.66 5 2.32 5 3 C2.09451118 5.04169485 0.59857954 6 -3 6 C-1.125 1.125 -1.125 1.125 0 0 Z " fill="#C4C4C4" transform="translate(27,20)"/>
<path d="M0 0 C0.66 0 1.32 0 2 0 C2.66 1.98 3.32 3.96 4 6 C2.35 6.66 0.7 7.32 -1 8 C-0.7525 7.13375 -0.7525 7.13375 -0.5 6.25 C0.14462031 3.73335631 0.14462031 3.73335631 0 0 Z " fill="#CECECE" transform="translate(52,55)"/>
<path d="M0 0 C2.12038635 2.61514317 4.13091744 5.19637616 6 8 C4.35 8 2.7 8 1 8 C-0.35439668 5.29120665 -0.06501451 2.99066732 0 0 Z " fill="#FFFFFF" transform="translate(73,48)"/>
<path d="M0 0 C0.66 0 1.32 0 2 0 C2 2.64 2 5.28 2 8 C0.68 8 -0.64 8 -2 8 C-1.34 5.36 -0.68 2.72 0 0 Z " fill="#7F7F7F" transform="translate(56,46)"/>
<path d="M0 0 C2.12046792 3.53411321 2.53199289 6.94393835 3 11 C1 10 1 10 -0.1875 7.1875 C-0.96421451 4.14038924 -1.10096399 2.86250637 0 0 Z " fill="#CECECE" transform="translate(23,59)"/>
<path d="M0 0 C1.98362069 2.91708924 1.9876191 4.12380904 1.625 7.75 C1.41875 8.8225 1.2125 9.895 1 11 C-1.78637633 6.8204355 -0.79562512 4.85331323 0 0 Z " fill="#1E1E1E" transform="translate(34,63)"/>
</svg>
